<svg width="229" height="44" viewBox="0 0 229 44" fill="none" xmlns="http://www.w3.org/2000/svg">
<path d="M3.564 9.8V35H8.172V13.76H21.24V35H25.848V9.8H3.564ZM43.1058 15.56C40.4778 15.56 38.2458 16.46 36.7338 18.296V15.776H32.4498V41.984H36.9498V32.66C38.4978 34.424 40.6578 35.252 43.1058 35.252C48.7218 35.252 52.8618 31.364 52.8618 25.388C52.8618 19.448 48.7218 15.56 43.1058 15.56ZM42.6018 31.4C39.3618 31.4 36.8778 29.06 36.8778 25.388C36.8778 21.716 39.3618 19.376 42.6018 19.376C45.8418 19.376 48.2898 21.716 48.2898 25.388C48.2898 29.06 45.8418 31.4 42.6018 31.4ZM65.9084 35.252C71.8844 35.252 76.1684 31.148 76.1684 25.388C76.1684 19.628 71.8844 15.56 65.9084 15.56C60.0044 15.56 55.6844 19.628 55.6844 25.388C55.6844 31.148 60.0044 35.252 65.9084 35.252ZM65.9084 31.4C62.6684 31.4 60.2204 29.06 60.2204 25.388C60.2204 21.716 62.6684 19.376 65.9084 19.376C69.1844 19.376 71.6324 21.716 71.6324 25.388C71.6324 29.06 69.1844 31.4 65.9084 31.4ZM98.0789 31.184V15.776H82.2389L81.9869 22.364C81.7709 26.864 81.3029 31.076 78.6029 31.184H77.7029V39.284H81.8789V35H96.7109V39.284H100.923V31.184H98.0789ZM86.0909 22.688L86.1989 19.592H93.5789V31.184H84.1109C85.6589 29.708 85.9469 26.288 86.0909 22.688ZM118.766 15.776L112.682 29.996L106.634 15.776H101.954L110.342 35.072L110.018 35.828C109.154 37.736 108.218 38.492 106.634 38.492C105.41 38.492 104.186 37.988 103.322 37.16L101.522 40.472C102.746 41.588 104.762 42.236 106.67 42.236C109.874 42.236 112.322 40.904 114.086 36.548L123.086 15.776H118.766ZM140 35H145.292L137.84 25.028L144.824 15.776H140L134.312 23.552H130.712V15.776H126.212V35H130.712V27.296H134.204L140 35ZM163.447 15.776H145.447V19.592H152.215V35H156.715V19.592H163.447V15.776ZM176.072 22.112L171.212 22.076V15.776H166.712V35L175.424 35.036C180.68 35.072 183.632 32.66 183.632 28.448C183.632 24.452 181.004 22.112 176.072 22.112ZM186.116 35H190.616V15.776H186.116V35ZM175.028 31.724L171.212 31.688V25.172L175.028 25.208C177.692 25.244 179.096 26.18 179.096 28.376C179.096 30.608 177.656 31.76 175.028 31.724Z" fill="white"/>
<path fill-rule="evenodd" clip-rule="evenodd" d="M167 12.5546L201.309 0V12.5546H167Z" fill="#FF6600"/>
</svg>
