<svg width="296" height="73" viewBox="0 0 296 73" fill="none" xmlns="http://www.w3.org/2000/svg">
<path d="M3.168 45.5547H13.248C18.912 45.5547 22.112 43.0587 22.112 38.6107C22.112 34.3867 19.264 32.0827 13.888 32.0827H7.264V26.5787H20.608V23.1547H3.168V45.5547ZM7.264 42.3547V35.2827H13.024C16.288 35.2827 17.92 36.4027 17.92 38.7387C17.92 41.1067 16.224 42.3547 13.024 42.3547H7.264ZM27.477 28.4667L27.189 35.0587C26.997 38.6107 26.901 42.2587 24.277 42.2587C24.053 42.2587 23.797 42.2267 23.509 42.1627L23.317 45.5227C24.149 45.7467 24.885 45.8747 25.525 45.8747C29.557 45.8747 30.453 41.3307 30.741 35.2507L30.901 31.8587H37.301V45.5547H41.301V28.4667H27.477ZM54.304 45.7787C59.616 45.7787 63.424 42.1307 63.424 37.0107C63.424 31.8907 59.616 28.2747 54.304 28.2747C49.056 28.2747 45.216 31.8907 45.216 37.0107C45.216 42.1307 49.056 45.7787 54.304 45.7787ZM54.304 42.3547C51.424 42.3547 49.248 40.2747 49.248 37.0107C49.248 33.7467 51.424 31.6667 54.304 31.6667C57.216 31.6667 59.392 33.7467 59.392 37.0107C59.392 40.2747 57.216 42.3547 54.304 42.3547ZM80.4955 28.4667H67.3755V45.5547H71.3755V31.8587H80.4955V28.4667ZM104.507 45.5547H109.211L102.587 36.6907L108.795 28.4667H104.507L99.4505 35.3787H96.2505V28.4667H92.2505V45.5547H96.2505V38.7067H99.3545L104.507 45.5547ZM119.085 45.7787C124.397 45.7787 128.205 42.1307 128.205 37.0107C128.205 31.8907 124.397 28.2747 119.085 28.2747C113.837 28.2747 109.997 31.8907 109.997 37.0107C109.997 42.1307 113.837 45.7787 119.085 45.7787ZM119.085 42.3547C116.205 42.3547 114.029 40.2747 114.029 37.0107C114.029 33.7467 116.205 31.6667 119.085 31.6667C121.997 31.6667 124.173 33.7467 124.173 37.0107C124.173 40.2747 121.997 42.3547 119.085 42.3547ZM152.573 45.5547L152.541 28.4667H148.797L142.429 39.1547L136.349 28.4667H132.157V45.5547H135.805V34.1947L141.469 43.7627H143.197L148.957 34.2267V45.5547H152.573ZM157.938 28.4667V45.5547H161.938V31.8587H170.354V45.5547H174.322V28.4667H157.938ZM186.087 28.2747C183.335 28.2747 180.679 28.9787 178.855 30.3867L180.423 33.2987C181.703 32.2427 183.687 31.6027 185.607 31.6027C188.455 31.6027 189.863 32.9787 189.863 35.3147V35.5707H185.447C180.263 35.5707 178.343 37.8107 178.343 40.6587C178.343 43.6347 180.807 45.7787 184.711 45.7787C187.271 45.7787 189.127 44.9467 190.087 43.4747V45.5547H193.863V35.5387C193.863 30.6107 191.015 28.2747 186.087 28.2747ZM185.543 42.8667C183.495 42.8667 182.279 41.9387 182.279 40.4987C182.279 39.2507 183.015 38.2267 185.735 38.2267H189.863V40.2107C189.191 41.9707 187.495 42.8667 185.543 42.8667ZM198.813 45.5547H202.813V38.8027H211.421V45.5547H215.421V28.4667H211.421V35.4107H202.813V28.4667H198.813V45.5547ZM220.782 45.5547H224.462L233.87 34.2907V45.5547H237.87V28.4667H234.222L224.782 39.7307V28.4667H220.782V45.5547ZM243.251 45.5547H246.931L256.339 34.2907V45.5547H260.339V28.4667H256.691L247.251 39.7307V28.4667H243.251V45.5547Z" fill="white"/>
<path fill-rule="evenodd" clip-rule="evenodd" d="M251 20L296 0V20H251Z" fill="#FF6600"/>
</svg>
